<svg width="24" height="24" viewBox="0 0 24 24" fill="none" xmlns="http://www.w3.org/2000/svg">
<path d="M17 21V19C17 17.9391 16.5786 16.9217 15.8284 16.1716C15.0783 15.4214 14.0609 15 13 15H5C3.93913 15 2.92172 15.4214 2.17157 16.1716C1.42143 16.9217 1 17.9391 1 19V21" stroke="#888888" stroke-width="2" stroke-linecap="round" stroke-linejoin="round"/>
<path d="M9 7C9 9.20914 7.20914 11 5 11C2.79086 11 1 9.20914 1 7C1 4.79086 2.79086 3 5 3C7.20914 3 9 4.79086 9 7Z" stroke="#888888" stroke-width="2" stroke-linecap="round" stroke-linejoin="round"/>
<path d="M23 21V19C22.9999 18.2588 22.7538 17.5375 22.3087 16.9431C21.8637 16.3488 21.2483 15.9142 20.55 15.71C20.4735 15.6874 20.3956 15.674 20.317 15.67C19.9872 15.6669 19.6646 15.6961 19.356 15.757C18.6433 15.8973 17.9897 16.2731 17.4725 16.8404C16.9554 17.4078 16.5925 18.1408 16.42 18.94" stroke="#888888" stroke-width="2" stroke-linecap="round" stroke-linejoin="round"/>
<path d="M15 7C15 9.20914 13.2091 11 11 11C10.6698 11 10.3444 10.9575 10.032 10.875C9.3789 10.6976 8.7844 10.3204 8.307 9.789C7.8296 9.2576 7.48119 8.59972 7.29 7.89" stroke="#888888" stroke-width="2" stroke-linecap="round" stroke-linejoin="round"/>
</svg>